<?xml version="1.0" encoding="utf-8"?>
<!-- Generator: Adobe Illustrator 22.0.1, SVG Export Plug-In . SVG Version: 6.00 Build 0)  -->
<svg version="1.1" id="레이어_1" xmlns="http://www.w3.org/2000/svg" xmlns:xlink="http://www.w3.org/1999/xlink" x="0px"
	 y="0px" viewBox="0 0 348 348" style="enable-background:new 0 0 348 348;" xml:space="preserve">
<style type="text/css">
	.st0{fill:none;stroke:#000000;stroke-width:2;}
	.st1{fill:none;stroke:#000000;stroke-width:2;stroke-miterlimit:10;}
</style>
<path class="st0" d="M5.1,5.8H342v337.7H5.1L5.1,5.8z"/>
<path class="st0" d="M282.7,40.6c0-8.4,7-15.2,15.6-15.2c4.1,0,8.1,1.6,11,4.4c2.9,2.8,4.6,6.7,4.6,10.7c0,8.4-7,15.2-15.6,15.2
	C289.7,55.7,282.7,48.9,282.7,40.6L282.7,40.6z"/>
<rect x="80.3" y="82.3" class="st1" width="185" height="185"/>
<g>
	<line class="st1" x1="109" y1="72.7" x2="236.3" y2="72.7"/>
	<line class="st1" x1="173.5" y1="42.6" x2="236.3" y2="72.7"/>
	<line class="st1" x1="109" y1="72.7" x2="173.5" y2="42.6"/>
</g>
<g>
	<line class="st1" x1="71.7" y1="240" x2="71.7" y2="112.6"/>
	<line class="st1" x1="41.6" y1="175.4" x2="71.7" y2="112.6"/>
	<line class="st1" x1="71.7" y1="240" x2="41.6" y2="175.4"/>
</g>
<g>
	<line class="st1" x1="237.7" y1="277" x2="110.3" y2="277"/>
	<line class="st1" x1="173.1" y1="307.1" x2="110.3" y2="277"/>
	<line class="st1" x1="237.7" y1="277" x2="173.1" y2="307.1"/>
</g>
<g>
	<line class="st1" x1="275.2" y1="110.9" x2="275.2" y2="238.3"/>
	<line class="st1" x1="305.3" y1="175.5" x2="275.2" y2="238.3"/>
	<line class="st1" x1="275.2" y1="110.9" x2="305.3" y2="175.5"/>
</g>
<circle cx="212.6" cy="213.5" r="11.2"/>
<path d="M127.7,174.8c0-25.6,20.7-46.3,46.3-46.3s46.3,20.7,46.3,46.3c0,0.1,0,0.1,0,0.2c6.3,0,12.5,0,18.8,0.8c0-0.3,0-0.6,0-0.9
	c0-36.2-29.4-65.6-65.6-65.6s-65.6,29.4-65.6,65.6s29.4,65.6,65.6,65.6c0.2,0,0.3,0,0.5,0c0-6.7,0-12.5,0-19.3
	C148.4,221.2,127.7,200.4,127.7,174.8z"/>
<circle cx="174.1" cy="230.8" r="9.6"/>
<circle cx="229.7" cy="175.3" r="9.4"/>
</svg>
